<svg aria-hidden="true" style="position:absolute;width:0;height:0;overflow:hidden" xmlns="http://www.w3.org/2000/svg"><defs><symbol id="icon-guarantee" viewBox="0 0 32 32"><path d="m12.9 18.267 1.167-3.8L11 12h3.8L16 8.267 17.2 12H21l-3.1 2.467 1.167 3.8L16 15.9l-3.1 2.367zM8 30.667v-10.3q-1.267-1.4-1.967-3.2t-.7-3.833q0-4.467 3.1-7.567T16 2.667t7.567 3.1 3.1 7.567q0 2.033-.7 3.833T24 20.367v10.3L16 28l-8 2.667zm8-9.334q3.333 0 5.667-2.333T24 13.333t-2.333-5.667T16 5.333t-5.667 2.333T8 13.333 10.333 19 16 21.333zM10.667 26.7 16 25.333l5.333 1.367v-4.133q-1.167.667-2.517 1.05T15.999 24t-2.817-.383-2.517-1.05V26.7z"/></symbol><symbol id="icon-play" viewBox="0 0 30 32"><path d="M29.538 16 1.846 31.988V.012L29.538 16z"/></symbol><symbol id="icon-done" viewBox="0 0 32 32"><path d="m11.467 30-2.533-4.267-4.8-1.067.467-4.933L1.334 16l3.267-3.733-.467-4.933 4.8-1.067L11.467 2 16 3.933 20.533 2l2.533 4.267 4.8 1.067-.467 4.933L30.666 16l-3.267 3.733.467 4.933-4.8 1.067L20.533 30 16 28.067 11.467 30zm1.133-3.4 3.4-1.467 3.467 1.467 1.867-3.2 3.667-.867-.333-3.733 2.467-2.8-2.467-2.867.333-3.733-3.667-.8-1.933-3.2-3.4 1.467L12.534 5.4l-1.867 3.2L7 9.4l.333 3.733L4.866 16l2.467 2.8L7 22.6l3.667.8 1.933 3.2zm2-5.867 7.533-7.533-1.867-1.933-5.667 5.667-2.867-2.8-1.867 1.867 4.733 4.733z"/></symbol><symbol id="icon-shopping" viewBox="0 0 32 32"><path stroke-linejoin="round" stroke-linecap="round" stroke-width="2.667" d="M14.667 27.333a1.333 1.333 0 1 1-2.667 0 1.333 1.333 0 0 1 2.667 0zm10.666 0a1.333 1.333 0 1 1-2.667 0 1.333 1.333 0 0 1 2.667 0zm-22-24h4l3.6 16.533A2.672 2.672 0 0 0 13.546 22l.057-.001H13.6h10.267l.054.001a2.669 2.669 0 0 0 2.61-2.117l.003-.017 2.133-11.2h-19.2"/></symbol><symbol id="icon-close" viewBox="0 0 24 24"><path stroke-linecap="round" stroke-width="2" d="m9 6 6 6 6-6M9 18l6-6 6 6"/></symbol></defs></svg>