<svg aria-hidden="true" style="position:absolute;width:0;height:0;overflow:hidden" xmlns="http://www.w3.org/2000/svg"><defs><symbol id="icon-guarantee" viewBox="0 0 32 32"><path d="m12.9 18.267 1.167-3.8L11 12h3.8L16 8.267 17.2 12H21l-3.1 2.467 1.167 3.8L16 15.9l-3.1 2.367zM8 30.667v-10.3q-1.267-1.4-1.967-3.2t-.7-3.833q0-4.467 3.1-7.567T16 2.667t7.567 3.1 3.1 7.567q0 2.033-.7 3.833T24 20.367v10.3L16 28l-8 2.667zm8-9.334q3.333 0 5.667-2.333T24 13.333t-2.333-5.667T16 5.333t-5.667 2.333T8 13.333 10.333 19 16 21.333zM10.667 26.7 16 25.333l5.333 1.367v-4.133q-1.167.667-2.517 1.05T15.999 24t-2.817-.383-2.517-1.05V26.7z"/></symbol></defs></svg>